<svg width="32" height="32" viewBox="0 0 32 32" fill="none" xmlns="http://www.w3.org/2000/svg">
<path d="M2.35999 11.2302L10.67 18.8002C11.28 19.3602 12.27 18.9202 12.27 18.0902V14.4602C12.27 14.1102 12.56 13.8202 12.91 13.8202H28.77C29.43 13.8202 29.96 13.2902 29.96 12.6302V8.42019C29.96 7.76019 29.43 7.23019 28.77 7.23019H12.91C12.56 7.23019 12.27 6.94019 12.27 6.59019V2.96019C12.27 2.13019 11.28 1.69019 10.67 2.25019L2.35999 9.82019C2.26082 9.90892 2.18149 10.0176 2.12717 10.1391C2.07285 10.2605 2.04478 10.3921 2.04478 10.5252C2.04478 10.6583 2.07285 10.7898 2.12717 10.9113C2.18149 11.0328 2.26082 11.1415 2.35999 11.2302ZM16.33 28.7602L13.79 21.8102C13.63 21.3202 13.17 21.0002 12.66 21.0002C12.15 21.0002 11.69 21.3202 11.54 21.7902L8.96999 28.7702C8.78999 29.2502 9.03999 29.7702 9.51999 29.9502C9.61999 29.9802 9.72999 30.0002 9.83999 30.0002C10.21 30.0002 10.57 29.7702 10.7 29.4002L11.11 28.2702C11.15 28.2802 11.19 28.2802 11.23 28.2802H14.1C14.13 28.2802 14.17 28.2802 14.2 28.2702L14.61 29.3902C14.79 29.8702 15.31 30.1202 15.79 29.9402C16.26 29.7702 16.5 29.2402 16.33 28.7602ZM11.79 26.4402L12.66 24.0602L13.52 26.4402H11.79ZM8.22999 23.7102C8.22999 24.2402 8.07999 24.7302 7.81999 25.1402C8.15214 25.3917 8.42156 25.7167 8.60719 26.0897C8.79282 26.4627 8.88961 26.8736 8.88999 27.2902C8.88999 28.6702 7.83999 29.8302 6.48999 29.9802C6.44999 29.9902 6.39999 30.0002 6.35999 29.9902C6.29999 30.0002 6.23999 30.0002 6.17999 30.0002H2.91999C2.79833 30.0002 2.67788 29.9761 2.5656 29.9292C2.45332 29.8824 2.35146 29.8137 2.26589 29.7272C2.18033 29.6407 2.11277 29.5381 2.06713 29.4253C2.02149 29.3126 1.99867 29.1918 1.99999 29.0702V21.9102C1.99999 21.4102 2.40999 21.0002 2.91999 21.0002H5.51999C5.61999 21.0002 5.70999 21.0002 5.78999 21.0102L5.97999 21.0402C7.25999 21.2602 8.22999 22.3802 8.22999 23.7102ZM5.52999 22.8402H3.83999V24.5802H5.51999C5.99999 24.5802 6.39999 24.1902 6.39999 23.7102C6.39999 23.4794 6.30833 23.2582 6.14518 23.095C5.98202 22.9318 5.76073 22.8402 5.52999 22.8402ZM3.83999 26.4102V28.1502H6.18999C6.42073 28.1502 6.64202 28.0585 6.80518 27.8954C6.96833 27.7322 7.05999 27.5109 7.05999 27.2802C7.05999 27.0494 6.96833 26.8282 6.80518 26.665C6.64202 26.5018 6.42073 26.4102 6.18999 26.4102H3.83999ZM22.6 28.3502C22.235 28.9799 21.6726 29.4716 20.9998 29.7492C20.327 30.0268 19.5814 30.0748 18.8786 29.8857C18.1757 29.6966 17.5549 29.281 17.1122 28.7033C16.6695 28.1256 16.4297 27.418 16.43 26.6902V24.3102C16.43 22.4802 17.91 21.0002 19.74 21.0002C20.92 21.0002 22.02 21.6402 22.61 22.6502C22.87 23.0902 22.71 23.6502 22.28 23.9102C21.84 24.1702 21.28 24.0202 21.02 23.5802C20.8887 23.3568 20.7018 23.1712 20.4775 23.0415C20.2532 22.9118 19.9991 22.8425 19.74 22.8402C18.94 22.8402 18.27 23.5002 18.27 24.3102V26.6902C18.27 27.5002 18.94 28.1602 19.74 28.1602C20.27 28.1602 20.75 27.8802 21.02 27.4202C21.28 26.9902 21.83 26.8302 22.28 27.0902C22.7 27.3502 22.86 27.9102 22.6 28.3502ZM27.23 24.8702L29.83 28.5502C30.12 28.9702 30.03 29.5402 29.6 29.8402C29.18 30.1302 28.61 30.0302 28.32 29.6202L25.91 26.2002L25.22 26.8902V29.0902C25.22 29.6002 24.81 30.0102 24.3 30.0102C23.79 30.0102 23.38 29.6002 23.38 29.0902V21.9202C23.38 21.4102 23.79 21.0002 24.3 21.0002C24.81 21.0002 25.22 21.4102 25.22 21.9202V24.2902L28.23 21.2702C28.59 20.9102 29.17 20.9102 29.53 21.2702C29.89 21.6302 29.89 22.2102 29.53 22.5702L27.23 24.8702Z" fill="white"/>
</svg>
