<svg width="28" height="30" viewBox="0 0 28 30" fill="none" xmlns="http://www.w3.org/2000/svg">
<path fill-rule="evenodd" clip-rule="evenodd" d="M4.64548 1.63467C7.02281 0.604667 10.2141 0 13.6675 0C17.1208 0 20.3121 0.604667 22.6895 1.63467C23.8761 2.14933 24.9201 2.796 25.6868 3.582C26.4441 4.358 26.9868 5.33533 27.0088 6.46867L27.0181 6.57067C27.0279 6.67511 27.0406 6.82644 27.0561 7.02467C27.0875 7.42067 27.1288 8.00067 27.1695 8.744C27.2428 10.054 27.3148 11.8733 27.3308 14.0893C27.333 14.1204 27.3341 14.1518 27.3341 14.1833C27.3341 14.2278 27.3335 14.272 27.3321 14.316C27.3335 14.54 27.3341 14.768 27.3341 15C27.3341 17.6307 27.2521 19.7707 27.1701 21.256C27.1301 21.9811 27.0794 22.7057 27.0181 23.4293L27.0135 23.4833L27.0088 23.5313C26.9875 24.6647 26.4441 25.642 25.6868 26.418C24.9201 27.204 23.8755 27.8513 22.6895 28.3647C20.3121 29.396 17.1208 30 13.6675 30C10.2141 30 7.02281 29.3953 4.64548 28.3653C3.45881 27.8507 2.41481 27.204 1.64814 26.418C0.890811 25.642 0.348144 24.6647 0.326144 23.5313L0.316811 23.4293L0.278811 22.9753C0.247477 22.5793 0.206144 21.9993 0.165477 21.2567C0.0408038 18.9453 -0.0134435 16.6307 0.00281068 14.316L0.000810661 14.1833C0.000810661 14.1522 0.00192185 14.1209 0.00414407 14.0893C0.0201441 11.8733 0.0928107 10.054 0.165477 8.744C0.20535 8.01886 0.2558 7.29434 0.316811 6.57067L0.326144 6.46867C0.348144 5.33533 0.890811 4.358 1.64814 3.582C2.41481 2.796 3.45948 2.14867 4.64548 1.63533M24.5075 8.89133C24.5795 10.194 24.6521 12.0247 24.6655 14.2647C24.6201 15.1553 23.8161 16.158 21.6621 16.9967C19.5521 17.8193 16.6461 18.258 13.6675 18.258C10.6888 18.258 7.78214 17.8193 5.67214 16.9967C3.52081 16.158 2.71614 15.1567 2.66948 14.2667C2.68281 12.0267 2.75614 10.1947 2.82748 8.89133L2.82814 8.88C4.91881 10.54 8.98814 11.6667 13.6675 11.6667C18.3461 11.6667 22.4168 10.54 24.5068 8.88L24.5075 8.89133ZM2.82748 21.1087C2.78748 20.39 2.74748 19.5113 2.71814 18.4913C3.34617 18.8855 4.01135 19.2171 4.70414 19.4813C7.21948 20.4613 10.4795 20.9247 13.6675 20.9247C16.8555 20.9247 20.1161 20.462 22.6308 19.4813C23.3238 19.2171 23.9892 18.8855 24.6175 18.4913C24.592 19.3642 24.5553 20.2367 24.5075 21.1087C24.4955 21.3233 24.4921 21.5507 24.4888 21.7833C24.4755 22.7687 24.4595 23.8573 23.7781 24.556C23.3295 25.016 22.6155 25.4907 21.6288 25.9187C19.6595 26.772 16.8455 27.3333 13.6675 27.3333C10.4895 27.3333 7.67548 26.772 5.70614 25.9187C4.71948 25.4907 4.00548 25.0153 3.55681 24.556C2.87548 23.8573 2.86014 22.768 2.84614 21.7827C2.84281 21.5507 2.83948 21.3233 2.82748 21.1093M5.33414 15C5.68777 15 6.0269 14.8595 6.27695 14.6095C6.527 14.3594 6.66748 14.0203 6.66748 13.6667C6.66748 13.313 6.527 12.9739 6.27695 12.7239C6.0269 12.4738 5.68777 12.3333 5.33414 12.3333C4.98052 12.3333 4.64138 12.4738 4.39134 12.7239C4.14129 12.9739 4.00081 13.313 4.00081 13.6667C4.00081 14.0203 4.14129 14.3594 4.39134 14.6095C4.64138 14.8595 4.98052 15 5.33414 15ZM11.0008 14.8333C11.0008 15.187 10.8603 15.5261 10.6103 15.7761C10.3602 16.0262 10.0211 16.1667 9.66748 16.1667C9.31386 16.1667 8.97472 16.0262 8.72467 15.7761C8.47462 15.5261 8.33414 15.187 8.33414 14.8333C8.33414 14.4797 8.47462 14.1406 8.72467 13.8905C8.97472 13.6405 9.31386 13.5 9.66748 13.5C10.0211 13.5 10.3602 13.6405 10.6103 13.8905C10.8603 14.1406 11.0008 14.4797 11.0008 14.8333ZM11.0008 24.1667C11.0008 24.5203 10.8603 24.8594 10.6103 25.1095C10.3602 25.3595 10.0211 25.5 9.66748 25.5C9.31386 25.5 8.97472 25.3595 8.72467 25.1095C8.47462 24.8594 8.33414 24.5203 8.33414 24.1667C8.33414 23.813 8.47462 23.4739 8.72467 23.2239C8.97472 22.9738 9.31386 22.8333 9.66748 22.8333C10.0211 22.8333 10.3602 22.9738 10.6103 23.2239C10.8603 23.4739 11.0008 23.813 11.0008 24.1667ZM6.66748 23C6.66748 23.3536 6.527 23.6928 6.27695 23.9428C6.0269 24.1929 5.68777 24.3333 5.33414 24.3333C4.98052 24.3333 4.64138 24.1929 4.39134 23.9428C4.14129 23.6928 4.00081 23.3536 4.00081 23C4.00081 22.6464 4.14129 22.3072 4.39134 22.0572C4.64138 21.8071 4.98052 21.6667 5.33414 21.6667C5.68777 21.6667 6.0269 21.8071 6.27695 22.0572C6.527 22.3072 6.66748 22.6464 6.66748 23Z" fill="white"/>
</svg>
