<svg width="16" height="22" viewBox="0 0 16 22" fill="none" xmlns="http://www.w3.org/2000/svg">
<path d="M1 1H12C12.7956 1 13.5587 1.31607 14.1213 1.87868C14.6839 2.44129 15 3.20435 15 4V18C15 18.2652 14.8946 18.5196 14.7071 18.7071C14.5196 18.8946 14.2652 19 14 19H11" stroke="black" stroke-width="2" stroke-linecap="round" stroke-linejoin="round"/>
<path d="M8 11V13M1 1L8.588 2.518C9.268 2.65392 9.87991 3.02121 10.3197 3.55739C10.7594 4.09358 10.9998 4.76555 11 5.459V19.78C10.9999 19.9279 10.967 20.0739 10.9037 20.2076C10.8404 20.3412 10.7482 20.4592 10.6338 20.5529C10.5194 20.6466 10.3856 20.7138 10.2422 20.7496C10.0987 20.7854 9.94902 20.789 9.804 20.76L2.608 19.322C2.15444 19.2313 1.74633 18.9863 1.45314 18.6286C1.15995 18.2708 0.999817 17.8225 1 17.36V1Z" stroke="black" stroke-width="2" stroke-linecap="round" stroke-linejoin="round"/>
</svg>
