<svg width="27" height="27" viewBox="0 0 27 27" fill="none" xmlns="http://www.w3.org/2000/svg">
<path fill-rule="evenodd" clip-rule="evenodd" d="M0 6.476C0 4.75846 0.682291 3.11126 1.89678 1.89678C3.11126 0.682291 4.75846 0 6.476 0H13.3333C13.687 0 14.0261 0.140476 14.2761 0.390524C14.5262 0.640573 14.6667 0.979711 14.6667 1.33333C14.6667 1.68696 14.5262 2.02609 14.2761 2.27614C14.0261 2.52619 13.687 2.66667 13.3333 2.66667H6.476C5.4657 2.66667 4.49678 3.06801 3.78239 3.78239C3.06801 4.49678 2.66667 5.4657 2.66667 6.476V20.1907C2.66667 21.201 3.06801 22.1699 3.78239 22.8843C4.49678 23.5987 5.4657 24 6.476 24H20.1907C21.201 24 22.1699 23.5987 22.8843 22.8843C23.5987 22.1699 24 21.201 24 20.1907V13.3333C24 12.9797 24.1405 12.6406 24.3905 12.3905C24.6406 12.1405 24.9797 12 25.3333 12C25.687 12 26.0261 12.1405 26.2761 12.3905C26.5262 12.6406 26.6667 12.9797 26.6667 13.3333V20.1907C26.6667 21.9082 25.9844 23.5554 24.7699 24.7699C23.5554 25.9844 21.9082 26.6667 20.1907 26.6667H6.476C4.75846 26.6667 3.11126 25.9844 1.89678 24.7699C0.682291 23.5554 0 21.9082 0 20.1907V6.476Z" fill="black"/>
<path fill-rule="evenodd" clip-rule="evenodd" d="M17.516 14.9588L14.576 16.7321L13.1987 14.4481L16.1387 12.6748L16.1427 12.6721C16.2554 12.6043 16.3593 12.5228 16.452 12.4295L23.132 5.7148C23.1989 5.64734 23.2634 5.57752 23.3253 5.50547C23.7667 4.9908 24.42 3.97214 23.6293 3.17747C22.9613 2.50547 22.004 3.14014 21.384 3.68547C21.2177 3.83209 21.0576 3.98555 20.904 4.14547L20.8587 4.1908L14.272 10.8108C14.1156 10.9663 13.993 11.1524 13.912 11.3575L12.8133 14.1215C12.7925 14.1735 12.7886 14.2307 12.8021 14.2851C12.8157 14.3395 12.846 14.3882 12.8888 14.4243C12.9316 14.4605 12.9847 14.4823 13.0405 14.4865C13.0964 14.4908 13.1509 14.4774 13.1987 14.4481L14.576 16.7321C12.1693 18.1828 9.296 15.7455 10.336 13.1348L11.436 10.3721C11.6502 9.83227 11.9723 9.34181 12.3827 8.93081L18.968 2.30947L19.0067 2.2708C19.2027 2.0708 19.8613 1.39614 20.66 0.910803C21.096 0.648136 21.792 0.300136 22.652 0.23347C23.6387 0.154803 24.692 0.465469 25.5187 1.29614C26.1514 1.92119 26.5493 2.74526 26.6453 3.62947C26.7114 4.31866 26.606 5.0135 26.3387 5.65214C25.952 6.60814 25.3067 7.3108 25.0227 7.59481L18.3427 14.3095C18.0938 14.5593 17.8182 14.7757 17.516 14.9588ZM23.4533 5.45747C23.4533 5.45747 23.448 5.46147 23.436 5.46547L23.4533 5.45747Z" fill="black"/>
</svg>
