<svg width="20" height="20" viewBox="0 0 20 20" fill="none" xmlns="http://www.w3.org/2000/svg">
<path fill-rule="evenodd" clip-rule="evenodd" d="M0 4.857C0 3.56884 0.511718 2.33345 1.42258 1.42258C2.33345 0.511718 3.56884 0 4.857 0H10C10.2652 0 10.5196 0.105357 10.7071 0.292893C10.8946 0.48043 11 0.734784 11 1C11 1.26522 10.8946 1.51957 10.7071 1.70711C10.5196 1.89464 10.2652 2 10 2H4.857C4.09928 2 3.37259 2.301 2.8368 2.8368C2.301 3.37259 2 4.09928 2 4.857V15.143C2 15.9007 2.301 16.6274 2.8368 17.1632C3.37259 17.699 4.09928 18 4.857 18H15.143C15.9007 18 16.6274 17.699 17.1632 17.1632C17.699 16.6274 18 15.9007 18 15.143V10C18 9.73478 18.1054 9.48043 18.2929 9.29289C18.4804 9.10536 18.7348 9 19 9C19.2652 9 19.5196 9.10536 19.7071 9.29289C19.8946 9.48043 20 9.73478 20 10V15.143C20 16.4312 19.4883 17.6666 18.5774 18.5774C17.6666 19.4883 16.4312 20 15.143 20H4.857C3.56884 20 2.33345 19.4883 1.42258 18.5774C0.511718 17.6666 0 16.4312 0 15.143V4.857Z" fill="white"/>
<path fill-rule="evenodd" clip-rule="evenodd" d="M13.137 11.2189L10.932 12.5489L9.89902 10.8359L12.104 9.50586L12.107 9.50386C12.1915 9.45296 12.2695 9.39183 12.339 9.32186L17.349 4.28586C17.3992 4.23526 17.4476 4.1829 17.494 4.12886C17.825 3.74286 18.315 2.97886 17.722 2.38286C17.221 1.87886 16.503 2.35486 16.038 2.76386C15.9133 2.87382 15.7932 2.98892 15.678 3.10886L15.644 3.14286L10.704 8.10786C10.5867 8.22446 10.4948 8.36405 10.434 8.51786L9.61002 10.5909C9.59439 10.6299 9.59145 10.6728 9.60161 10.7136C9.61176 10.7544 9.63451 10.7909 9.66661 10.818C9.69871 10.8451 9.73853 10.8615 9.78043 10.8647C9.82233 10.8679 9.86317 10.8578 9.89902 10.8359L10.932 12.5489C9.12702 13.6369 6.97202 11.8089 7.75202 9.85086L8.57702 7.77886C8.73764 7.37396 8.97925 7.00611 9.28702 6.69786L14.226 1.73186L14.255 1.70286C14.402 1.55286 14.896 1.04686 15.495 0.682858C15.822 0.485858 16.344 0.224858 16.989 0.174858C17.729 0.115858 18.519 0.348858 19.139 0.971858C19.6136 1.44065 19.912 2.0587 19.984 2.72186C20.0336 3.23875 19.9546 3.75988 19.754 4.23886C19.464 4.95586 18.98 5.48286 18.767 5.69586L13.757 10.7319C13.5704 10.9192 13.3637 11.0815 13.137 11.2189ZM17.59 4.09286C17.59 4.09286 17.586 4.09586 17.577 4.09886L17.59 4.09286Z" fill="white"/>
</svg>
