<svg width="83" height="90" viewBox="0 0 83 90" fill="none" xmlns="http://www.w3.org/2000/svg">
<path d="M48.6709 14.2659L27.4152 17.3227L34.9973 70.042L42.2917 68.9929L46.8659 30.7241L47.0766 28.9614L64.0584 30.9912L63.1514 24.6866C59.7797 24.5543 57.4741 23.8699 53.0435 26.2797L51.6114 27.0589L50.7134 25.698C48.0819 21.7107 48.6115 17.6677 48.6709 14.2659ZM52.2491 15.3246C52.2132 17.9305 52.0643 20.2332 52.9642 22.395C55.9281 21.1035 58.3492 20.9323 60.4787 20.9911C58.1103 18.7892 55.4521 17.1489 52.2491 15.3246ZM50.1808 32.9087L43.8598 85.794L77.9414 89.8672L82.7937 49.2713C79.571 48.2705 77.5208 47.0122 72.6176 48.1932L71.0328 48.5751L70.5179 47.0285C69.0078 42.496 70.5658 38.7278 71.5036 35.4573L50.1808 32.9087ZM74.6861 37.4061C73.9771 39.914 73.2372 42.0995 73.5469 44.4205C76.744 43.9402 79.1268 44.4014 81.1685 45.0093C79.4507 42.2695 77.3078 39.997 74.6861 37.4061Z" fill="black"/>
<path d="M19.7404 0L0 8.45481L20.9685 57.415L29.0935 53.9352L23.6478 16.071L23.3953 14.3136L38.8939 12.0845L36.4243 6.31842C33.1335 7.0627 30.7291 6.99879 27.0735 10.4732L25.8913 11.5963L24.672 10.5145C21.098 7.344 20.5634 3.30124 19.7404 0ZM23.4711 0.0970545C24.1108 2.62304 24.5629 4.88568 25.9915 6.74096C28.5201 4.72649 30.8141 3.93446 32.8862 3.44012C30.0288 1.9263 27.0368 1.03012 23.4711 0.0970545Z" fill="#DDFF32"/>
</svg>
