<svg width="32" height="32" viewBox="0 0 32 32" fill="none" xmlns="http://www.w3.org/2000/svg">
<path d="M19.7707 15.9999L21.6573 17.8852L25.428 14.1146C26.4282 13.1144 26.9901 11.7578 26.9901 10.3432C26.9901 8.92871 26.4282 7.57212 25.428 6.5719C24.9327 6.07664 24.3448 5.68378 23.6977 5.41575C23.0506 5.14772 22.3571 5.00977 21.6567 5.00977C20.2421 5.00977 18.8855 5.57168 17.8853 6.5719L14.1147 10.3426L16 12.2292L19.7707 8.45724C20.2709 7.95704 20.9493 7.67603 21.6567 7.67603C22.364 7.67603 23.0425 7.95704 23.5427 8.45724C24.0429 8.95743 24.3239 9.63585 24.3239 10.3432C24.3239 11.0506 24.0429 11.729 23.5427 12.2292L19.7707 15.9999ZM16 19.7719L17.8853 21.6572L14.1147 25.4279C13.1144 26.4281 11.7579 26.99 10.3433 26.99C8.9288 26.99 7.57221 26.4281 6.57199 25.4279C5.57177 24.4277 5.00986 23.0711 5.00986 21.6566C5.00986 20.242 5.57177 18.8855 6.57199 17.8852L10.3427 14.1146L12.2293 15.9999L8.45733 19.7719C7.95731 20.2721 7.67647 20.9504 7.67659 21.6577C7.67672 22.365 7.9578 23.0432 8.45799 23.5432C8.95819 24.0433 9.63654 24.3241 10.3438 24.324C11.0511 24.3238 11.7293 24.0428 12.2293 23.5426L16 19.7719Z" fill="white"/>
<path d="M19.772 14.1148C20.0222 13.8646 20.1627 13.5253 20.1627 13.1715C20.1627 12.8177 20.0222 12.4783 19.772 12.2281C19.5218 11.978 19.1825 11.8374 18.8287 11.8374C18.4748 11.8374 18.1355 11.978 17.8853 12.2281L12.2293 17.8855C12.102 18.0085 12.0004 18.1556 11.9305 18.3183C11.8607 18.4809 11.8239 18.6559 11.8223 18.8329C11.8208 19.01 11.8545 19.1856 11.9216 19.3494C11.9886 19.5133 12.0876 19.6621 12.2128 19.7873C12.338 19.9125 12.4869 20.0115 12.6507 20.0786C12.8146 20.1456 12.9902 20.1793 13.1672 20.1778C13.3442 20.1763 13.5192 20.1395 13.6819 20.0696C13.8445 19.9997 13.9917 19.8982 14.1147 19.7708L19.772 14.1148Z" fill="white"/>
</svg>
