<svg width="32" height="32" viewBox="0 0 32 32" fill="none" xmlns="http://www.w3.org/2000/svg">
<path fill-rule="evenodd" clip-rule="evenodd" d="M1.33333 0C0.979711 0 0.640573 0.140476 0.390525 0.390525C0.140476 0.640573 0 0.979711 0 1.33333V30.6667C0 31.0203 0.140476 31.3594 0.390525 31.6095C0.640573 31.8595 0.979711 32 1.33333 32H30.6667C31.0203 32 31.3594 31.8595 31.6095 31.6095C31.8595 31.3594 32 31.0203 32 30.6667V1.33333C32 0.979711 31.8595 0.640573 31.6095 0.390525C31.3594 0.140476 31.0203 0 30.6667 0H1.33333ZM5.33333 10.6667H21.3333V8H5.33333V10.6667ZM24 10.6667H26.6667V8H24V10.6667ZM21.3333 17.3333H5.33333V14.6667H21.3333V17.3333ZM24 17.3333H26.6667V14.6667H24V17.3333ZM21.3333 24H5.33333V21.3333H21.3333V24ZM24 24H26.6667V21.3333H24V24Z" fill="white"/>
</svg>
